<svg xmlns="http://www.w3.org/2000/svg" width="100%" height="100%" viewBox="0 0 340 300"
    preserveAspectRatio="xMidYMid meet" style="margin: auto;">
    <rect x="0" y="0" width="100%" height="100%" fill="#fff" fill-opacity="0"></rect>
    <g transform="translate(102.15,74.13)">
        <g transform="matrix(1,0,0,1,37.85,0)" opacity="1">
            <rect x="0" y="0" width="60" height="60" fill="none"></rect>
            <svg viewBox="0 0 60 60" x="0" y="0" width="60" height="60">
                <g fill="#000000">
                    <path
                        d="M49.001,0 L10.999,0 C4.934,0 0,4.934 0,10.999 L0,49.001 C0,55.066 4.934,60 10.999,60 L49.001,60 C55.065,60 60,55.066 60,49.001 L60,10.999 C60,4.934 55.065,0 49.001,0">
                    </path>
                </g>
            </svg>
            <svg xmlns="http://www.w3.org/2000/svg" viewBox="0 0 70.57 70.56" width="34" height="34" x="13" y="13">
                <path
                    d="M10.25 70.55H5.68c-.42 0-1 .07-1.16-.36s.3-.75.58-1l19-19c3.46-3.45 6.92-6.88 10.34-10.36.79-.8 1.32-.8 2.11 0Q51.26 54.45 66 69.14c.29.28.81.54.59 1s-.74.37-1.16.37H56.3a2.87 2.87 0 0 1-2.13-1Q45.5 60.84 36.84 52.2c-1.21-1.2-1.2-1.2-2.45 0Q25.57 61 16.77 69.69a2.65 2.65 0 0 1-2.07.87c-1.49-.04-2.97-.01-4.45-.01zM.28 59.62c-1-3.42 1-6.18 3.9-8.89 5-4.66 9.75-9.68 14.64-14.5.8-.78.83-1.26 0-2.06C13 28.38 7.18 22.53 1.33 16.73a3.27 3.27 0 0 1-1.07-2.58c.06-2.88 0-5.77 0-8.66 0-.45-.12-1 .42-1.23s.73.36 1 .65L30.8 34c1.13 1.13 1.13 1.32 0 2.46L1.72 65.48c-.3.31-.57.9-1.12.63s-.31-.76-.31-1.17c-.02-1.53-.01-3.05-.01-5.32zM70.55 10.43v4.22a3.14 3.14 0 0 1-1 2.48Q61 25.64 52.45 34.19c-1.1 1.09-1.1 1.1 0 2.16q8.54 8.53 17.08 17A3.26 3.26 0 0 1 70.57 56c-.06 2.89 0 5.78 0 8.67 0 .45.12 1-.41 1.24s-.74-.36-1-.65Q54.68 50.83 40.28 36.42c-1.14-1.14-1.14-1.32 0-2.46L69.11 5.14c.29-.28.54-.82 1-.64s.41.79.41 1.25c.04 1.56.03 3.12.03 4.68zM11.45.28c3.44-1.06 6.19 1 8.89 3.91 4.59 5 9.52 9.59 14.27 14.39.72.74 1.14.73 1.86 0 5.66-5.71 11.38-11.37 17-17.09a3.79 3.79 0 0 1 3-1.23c2.81.07 5.62 0 8.43 0 .49 0 1.14-.15 1.37.39s-.38.79-.69 1.1Q52.75 14.68 39.86 27.54c-1.16 1.15-2.42 2.2-3.49 3.45a.89.89 0 0 1-1.43.07c-.23-.2-.45-.43-.67-.65L5.69 1.84a1.21 1.21 0 0 1-.16-.16c-.24-.33-.82-.55-.56-1S5.72.29 6.14.29z"
                    fill="#ffffff"></path>
            </svg>
        </g>
    </g>
    <text x="170" y="170" text-anchor="middle" font-size="36" font-weight="bold" fill="#000000">tripify</text>
</svg>